#!OML:ASF H:\Terrain\Patient Classification 1\Animal2\Wednesday\Animal2.ASF
:FULLY-SPECIFIED
:DEGREES
1934
root 13.0923 18.1634 7.66104 9.5851 -3.46426 0.788934
lowerback 9.89434 -2.33301 0.983541
upperback -4.63821 -2.97037 0.318866
thorax -10.5858 -1.48293 0.351866
lowerneck 10.4492 4.46767 15.4051
upperneck -39.0513 3.02789 -21.3159
head -14.2198 1.81452 -12.7138
rclavicle 5.01186e-014 7.95139e-016
rhumerus -37.1702 24.1373 -57.0713
rradius 140.236
rwrist 0.0222897
rhand -15.7682 32.9411
rfingers 7.12502
rthumb 10.4238 3.21947
lclavicle 5.01186e-014 7.95139e-016
lhumerus -43.8539 -37.1259 61.7463
lradius 140.837
lwrist 31.6556
lhand 9.63941 4.78966
lfingers 7.12502
lthumb 34.7843 31.3958
rfemur -18.2026 -6.73512 20.6149
rtibia 20.6382
rfoot -14.9793 6.40812
rtoes 31.3035
lfemur -16.03 -5.2544 -18.6589
ltibia 17.0317
lfoot -13.9967 -4.14486
ltoes -35.8875
1935
root 13.0958 18.1656 7.64921 9.69604 -3.43682 0.615195
lowerback 9.91917 -2.29016 1.4211
upperback -4.80148 -2.86317 0.18102
thorax -10.8137 -1.46805 -0.0554439
lowerneck 10.5215 4.4745 15.5766
upperneck -38.5605 3.10537 -21.4198
head -13.9689 1.87228 -12.712
rclavicle 3.76014e-014 -6.01324e-015
rhumerus -34.2282 21.5515 -52.023
rradius 140.626
rwrist -1.92916
rhand -16.7254 30.6974
rfingers 7.12502
rthumb 9.50028 0.931538
lclavicle 3.76014e-014 -6.01324e-015
lhumerus -40.3804 -36.5432 55.9116
lradius 141.615
lwrist 34.3402
lhand 7.9683 5.07878
lfingers 7.12502
lthumb 33.1969 32.0372
rfemur -18.3512 -6.62089 20.8109
rtibia 20.6465
rfoot -14.8611 6.22782
rtoes 31.2214
lfemur -16.2629 -5.2857 -18.4242
ltibia 17.0961
lfoot -13.7722 -4.27132
ltoes -34.6734
1936
root 13.0932 18.1663 7.63694 9.77715 -3.3978 0.708825
lowerback 8.31891 -2.12212 1.72374
upperback -3.6325 -2.66429 -0.255941
thorax -8.61371 -1.40231 -0.820838
lowerneck 9.37188 4.48083 15.8523
upperneck -38.8593 2.9967 -21.4115
head -13.8562 1.74852 -12.7161
rclavicle 3.76728e-014 1.93815e-015
rhumerus -29.9326 16.6867 -47.1018
rradius 140.212
rwrist -3.34423
rhand -17.3643 29.4032
rfingers 7.12502
rthumb 8.88384 -0.389803
lclavicle 3.76728e-014 1.93815e-015
lhumerus -33.8439 -34.6298 48.1166
lradius 141.949
lwrist 37.3666
lhand 6.00297 5.53537
lfingers 7.12502
lthumb 31.3262 32.8742
rfemur -18.4411 -6.22774 20.6959
rtibia 20.5913
rfoot -14.862 5.62719
rtoes 30.2712
lfemur -16.4794 -5.40312 -18.4637
ltibia 17.1743
lfoot -13.5506 -4.1554
ltoes -34.7199
1937
root 13.0902 18.1687 7.62657 9.9955 -3.32005 0.947813
lowerback 8.4282 -2.15467 1.45423
upperback -4.02829 -2.73925 -0.253951
thorax -9.09691 -1.42688 -0.642161
lowerneck 9.4637 4.50028 15.9148
upperneck -38.2003 3.05527 -21.5701
head -13.5413 1.82476 -12.6882
rclavicle -1.12438e-015 -1.87355e-014
rhumerus -27.4328 14.0634 -42.7398
rradius 139.804
rwrist -4.737
rhand -17.3867 28.8111
rfingers 7.12502
rthumb 8.86219 -0.982807
lclavicle -1.12438e-015 -1.87355e-014
lhumerus -31.0081 -33.1462 42.8738
lradius 142.401
lwrist 39.7123
lhand 4.02357 5.70173
lfingers 7.12502
lthumb 29.4382 33.3893
rfemur -18.69 -5.87881 20.4459
rtibia 20.5076
rfoot -14.8527 4.84313
rtoes 28.5931
lfemur -16.8214 -5.42661 -18.6762
ltibia 17.2265
lfoot -13.4617 -4.13034
ltoes -35.0476
1938
root 13.0868 18.1751 7.62021 10.1994 -3.21751 0.977532
lowerback 8.3417 -2.18104 1.43847
upperback -4.30126 -2.77749 -0.238636
thorax -9.34399 -1.44632 -0.607461
lowerneck 9.62143 4.46931 16.0485
upperneck -37.6928 3.05254 -21.7417
head -13.3334 1.85579 -12.7161
rclavicle 4.25896e-014 1.73937e-015
rhumerus -25.3568 11.7237 -39.2861
rradius 139.194
rwrist -5.26438
rhand -17.7736 28.409
rfingers 7.12502
rthumb 8.4888 -1.40034
lclavicle 4.25896e-014 1.73937e-015
lhumerus -28.1056 -31.5247 37.9183
lradius 142.508
lwrist 41.1845
lhand 1.72757 5.68329
lfingers 7.12502
lthumb 27.244 33.7356
rfemur -18.9287 -5.76017 20.4462
rtibia 20.5041
rfoot -14.7626 4.44337
rtoes 28.1088
lfemur -17.0607 -5.18077 -18.6825
ltibia 17.1638
lfoot -13.3699 -4.65939
ltoes -33.7121
1939
root 13.0814 18.1802 7.61557 10.2941 -3.11703 0.832973
lowerback 8.25362 -2.2022 1.55888
upperback -4.42488 -2.78944 -0.199113
thorax -9.43218 -1.45936 -0.631224
lowerneck 9.85821 4.42318 16.1295
upperneck -37.5892 3.04238 -21.7686
head -13.342 1.85371 -12.747
rclavicle -9.56651e-015 -1.57537e-014
rhumerus -23.8809 10.0205 -36.9711
rradius 138.475
rwrist -4.51872
rhand -18.5683 28.0785
rfingers 7.12502
rthumb 7.72182 -1.76053
lclavicle -9.56651e-015 -1.57537e-014
lhumerus -25.4218 -29.648 33.4895
lradius 142.297
lwrist 42.2676
lhand -0.0478389 5.71813
lfingers 7.12502
lthumb 25.5446 34.0255
rfemur -19.0308 -5.85981 20.649
rtibia 20.5219
rfoot -14.6825 4.45247
rtoes 28.5884
lfemur -17.1538 -4.86381 -18.5025
ltibia 17.0777
lfoot -13.241 -5.26883
ltoes -31.7979
1940
root 13.0743 18.1833 7.60856 10.4799 -3.10351 0.938932
lowerback 7.98076 -2.19135 1.34158
upperback -4.46136 -2.80501 -0.193574
thorax -9.29942 -1.45389 -0.511208
lowerneck 10.0773 4.42016 15.9307
upperneck -37.8375 3.06178 -21.5858
head -13.5178 1.86084 -12.6859
rclavicle 2.28059e-015 -1.80521e-014
rhumerus -22.9471 9.09165 -35.7302
rradius 137.882
rwrist -3.3366
rhand -19.0702 27.4931
rfingers 7.12502
rthumb 7.23739 -2.36318
lclavicle 2.28059e-015 -1.80521e-014
lhumerus -23.1231 -27.5649 29.9095
lradius 141.934
lwrist 43.7522
lhand -1.40679 6.06027
lfingers 7.12502
lthumb 24.2422 34.5478
rfemur -19.2973 -6.07957 20.6207
rtibia 20.5242
rfoot -14.6475 4.46116
rtoes 28.087
lfemur -17.3529 -4.86458 -18.5566
ltibia 17.0088
lfoot -13.138 -5.02836
ltoes -31.9481
1941
root 13.0657 18.1864 7.60039 10.6985 -3.1239 1.13229
lowerback 7.81101 -2.17723 0.956377
upperback -4.62033 -2.83008 -0.139919
thorax -9.35041 -1.4412 -0.237682
lowerneck 10.3466 4.44007 15.5835
upperneck -38.0361 3.09462 -21.3783
head -13.6858 1.89513 -12.579
rclavicle 2.16248e-014 -1.11692e-014
rhumerus -22.5701 9.31325 -35.6369
rradius 137.652
rwrist -2.30736
rhand -19.5875 26.8461
rfingers 7.12502
rthumb 6.73807 -3.0267
lclavicle 2.16248e-014 -1.11692e-014
lhumerus -21.6424 -26.106 27.7227
lradius 141.632
lwrist 44.7381
lhand -3.08582 6.94705
lfingers 7.12502
lthumb 22.6316 35.6402
rfemur -19.6684 -6.20966 20.4773
rtibia 20.603
rfoot -14.4122 4.67076
rtoes 29.0096
lfemur -17.5217 -5.09866 -18.6612
ltibia 16.8528
lfoot -13.2224 -4.22815
ltoes -33.8056
1942
root 13.0561 18.1956 7.60001 10.8139 -3.10088 1.19357
lowerback 7.72899 -2.17257 0.633335
upperback -4.74089 -2.85001 0.0154531
thorax -9.40883 -1.42504 0.110698
lowerneck 10.3781 4.44899 15.3069
upperneck -38.0739 3.05459 -21.3125
head -13.734 1.90521 -12.5007
rclavicle -1.32502e-014 -1.1778e-014
rhumerus -22.6473 10.5386 -36.5382
rradius 137.979
rwrist -1.84361
rhand -19.8736 26.913
rfingers 7.12502
rthumb 6.46181 -2.96845
lclavicle -1.32502e-014 -1.1778e-014
lhumerus -21.056 -25.5576 27.0821
lradius 141.561
lwrist 44.5622
lhand -4.41246 7.63793
lfingers 7.12502
lthumb 21.3578 36.4809
rfemur -19.8604 -6.12502 20.3943
rtibia 20.7311
rfoot -14.1759 4.93709
rtoes 31.3102
lfemur -17.5105 -5.2488 -18.6399
ltibia 16.6496
lfoot -13.5487 -3.47695
ltoes -35.9602
1943
root 13.0456 18.2052 7.60772 10.9391 -3.08862 1.28819
lowerback 7.5087 -2.17092 0.188425
upperback -4.73972 -2.88513 0.198675
thorax -9.24413 -1.40847 0.549483
lowerneck 9.94932 4.52897 15.2064
upperneck -37.9868 3.04686 -21.4368
head -13.5888 1.92498 -12.4847
rclavicle 2.30466e-015 1.22253e-014
rhumerus -23.1908 12.3269 -38.397
rradius 138.58
rwrist -1.94972
rhand -19.1341 27.9326
rfingers 7.12502
rthumb 7.17569 -1.92572
lclavicle 2.30466e-015 1.22253e-014
lhumerus -21.25 -25.7413 27.8652
lradius 141.809
lwrist 43.3672
lhand -5.00607 7.63829
lfingers 7.12502
lthumb 20.7876 36.5448
rfemur -20.0093 -5.90951 20.265
rtibia 20.828
rfoot -14.1933 4.78848
rtoes 32.0911
lfemur -17.5064 -5.20939 -18.6934
ltibia 16.4862
lfoot -14.0217 -2.71413
ltoes -38.618
1944
root 13.0349 18.2093 7.61528 11.1021 -3.09062 1.3245
lowerback 7.38184 -2.18508 -0.167071
upperback -4.85579 -2.9304 0.384701
thorax -9.26741 -1.4013 0.949868
lowerneck 9.50969 4.66832 15.1041
upperneck -37.8358 3.1272 -21.5831
head -13.386 1.991 -12.4681
rclavicle -1.2275e-014 -7.05686e-015
rhumerus -24.6058 14.8952 -41.3398
rradius 139.121
rwrist -1.59479
rhand -18.0509 29.1186
rfingers 7.12502
rthumb 8.22125 -0.701477
lclavicle -1.2275e-014 -7.05686e-015
lhumerus -22.0816 -26.8374 29.8336
lradius 142.276
lwrist 41.6938
lhand -5.28732 7.51081
lfingers 7.12502
lthumb 20.5173 36.4467
rfemur -20.207 -5.61079 20.2182
rtibia 20.9053
rfoot -14.4248 4.28314
rtoes 31.2195
lfemur -17.5696 -5.04662 -18.691
ltibia 16.3625
lfoot -14.5419 -2.12203
ltoes -39.9662
1945
root 13.0297 18.2121 7.62659 11.2503 -3.10326 1.38828
lowerback 6.92997 -2.17884 -0.382153
upperback -4.77603 -2.93413 0.511557
thorax -8.89544 -1.39001 1.18141
lowerneck 9.14771 4.80426 14.7799
upperneck -37.9874 3.1624 -21.645
head -13.3659 2.04465 -12.4291
rclavicle -9.92681e-015 3.77691e-015
rhumerus -26.622 17.9173 -45.0132
rradius 139.572
rwrist -0.610729
rhand -17.4855 30.1161
rfingers 7.12502
rthumb 8.76685 0.318208
lclavicle -9.92681e-015 3.77691e-015
lhumerus -23.2766 -28.4145 32.8285
lradius 142.772
lwrist 40.0738
lhand -4.72648 6.84618
lfingers 7.12502
lthumb 21.0562 35.723
rfemur -20.3246 -5.61321 20.1358
rtibia 20.9214
rfoot -14.8286 4.14453
rtoes 30.2255
lfemur -17.6897 -4.59363 -18.7982
ltibia 16.4065
lfoot -15.064 -2.00266
ltoes -40.3415
1946
root 13.0304 18.2071 7.64407 11.3359 -3.10873 1.54221
lowerback 6.18368 -2.11476 -0.593119
upperback -4.47764 -2.85668 0.617588
thorax -8.11891 -1.34689 1.35665
lowerneck 8.64605 4.8747 14.3883
upperneck -38.1889 3.03698 -21.7805
head -13.3803 2.03676 -12.4059
rclavicle 1.3741e-014 1.11319e-014
rhumerus -28.6885 20.9456 -49.2236
rradius 139.678
rwrist 0.666014
rhand -17.0071 30.8564
rfingers 7.12502
rthumb 9.22848 1.07839
lclavicle 1.3741e-014 1.11319e-014
lhumerus -24.8953 -30.2334 36.9347
lradius 143.162
lwrist 38.6576
lhand -2.77205 5.67179
lfingers 7.12502
lthumb 22.9327 34.3279
rfemur -20.2779 -6.06758 19.9743
rtibia 20.8391
rfoot -15.1873 4.56256
rtoes 29.7171
lfemur -17.8444 -3.819 -19.0946
ltibia 16.668
lfoot -15.7498 -2.21977
ltoes -41.8333
1947
root 13.0281 18.1917 7.64527 11.3932 -3.0913 1.33708
lowerback 6.00214 -2.05091 -0.386395
upperback -4.44558 -2.73996 0.753774
thorax -7.98389 -1.29882 1.36026
lowerneck 8.24484 4.93361 14.3507
upperneck -38.1358 2.98677 -22.0275
head -13.2635 2.04076 -12.4695
rclavicle -2.20403e-014 -7.55382e-015
rhumerus -31.5834 24.3166 -54.2802
rradius 139.255
rwrist 2.62891
rhand -17.2227 31.2845
rfingers 7.12502
rthumb 9.02045 1.49741
lclavicle -2.20403e-014 -7.55382e-015
lhumerus -27.1979 -32.6605 41.8207
lradius 143.412
lwrist 37.6729
lhand -0.527906 5.338
lfingers 7.12502
lthumb 25.0846 33.7104
rfemur -20.2754 -5.95648 20.1889
rtibia 20.7404
rfoot -15.2638 4.57287
rtoes 30.1466
lfemur -18.0468 -3.36 -18.8856
ltibia 16.9455
lfoot -16.1076 -2.20992
ltoes -42.4204
1948
root 13.0296 18.1745 7.64111 11.4046 -3.06694 1.06802
lowerback 6.29872 -2.024 0.100529
upperback -4.60165 -2.65621 0.747578
thorax -8.35081 -1.28153 1.08864
lowerneck 7.83333 5.11544 14.6517
upperneck -37.8865 3.209 -22.3275
head -12.964 2.14026 -12.5918
rclavicle 4.72114e-015 2.127e-014
rhumerus -35.3406 27.1426 -59.7332
rradius 138.289
rwrist 4.05467
rhand -16.1774 32.7515
rfingers 7.12502
rthumb 10.029 3.01041
lclavicle 4.72114e-015 2.127e-014
lhumerus -30.3353 -35.5212 47.39
lradius 143.385
lwrist 36.1028
lhand 0.417961 5.38859
lfingers 7.12502
lthumb 25.9906 33.6312
rfemur -20.3228 -6.11568 20.5534
rtibia 20.6629
rfoot -15.2313 4.58971
rtoes 29.9983
lfemur -18.1797 -3.21365 -18.5628
ltibia 17.1501
lfoot -16.0137 -2.1054
ltoes -41.6805
